<svg xmlns="http://www.w3.org/2000/svg" width="2432" height="1442" viewBox="0 0 2432 1442"><rect width="100%" height="100%" fill="#DDDDDD"/><path fill="#999999" d="M564.735 784.105h47.49q5.12 0 8.13 2.88 3.01 2.88 3.01 7.62v18.94h-126.98v-10.5q0-3.2 1.34-6.72 1.35-3.52 4.29-6.33l56.19-56.32q7.04-7.17 12.61-13.7 5.57-6.53 9.28-12.93 3.71-6.4 5.7-12.99 1.98-6.59 1.98-13.89 0-6.65-1.92-11.71-1.92-5.05-5.44-8.51-3.52-3.46-8.45-5.18-4.92-1.73-11.07-1.73-5.63 0-10.43 1.6t-8.51 4.48q-3.71 2.88-6.27 6.72-2.56 3.84-3.84 8.45-2.18 5.88-5.64 7.8-3.45 1.92-9.98.9l-16.64-2.94q1.92-13.32 7.42-23.36 5.51-10.05 13.76-16.77 8.26-6.72 18.95-10.11 10.69-3.4 22.97-3.4 12.8 0 23.43 3.78 10.62 3.78 18.17 10.69 7.56 6.91 11.78 16.64t4.22 21.63q0 10.24-3 18.94-3.01 8.71-8.07 16.64-5.05 7.94-11.84 15.36-6.78 7.43-14.21 15.11l-41.72 42.62q6.01-1.79 11.96-2.75 5.96-.96 11.33-.96Zm105.22-40.32h56.32v-60.54q0-8.58 1.15-18.95l-57.47 79.49Zm83.84 0h23.29v18.3q0 2.56-1.66 4.42-1.66 1.86-4.74 1.86h-16.89v45.18h-27.52v-45.18h-78.08q-3.2 0-5.63-1.99-2.44-1.98-3.08-4.93l-3.32-16 87.68-117.12h29.95v115.46Zm60.29-60.8-16.64-2.94q1.92-13.32 7.42-23.36 5.5-10.05 13.76-16.77 8.26-6.72 18.94-10.11 10.69-3.4 22.98-3.4 12.8 0 23.1 3.65 10.31 3.65 17.6 10.11 7.3 6.47 11.2 15.17 3.91 8.71 3.91 18.82 0 8.83-1.99 15.55-1.98 6.72-5.69 11.71-3.71 4.99-9.22 8.45-5.5 3.46-12.41 5.76 16.64 5.25 24.83 16 8.19 10.75 8.19 27.01 0 13.82-5.12 24.45-5.12 10.62-13.82 17.85-8.71 7.23-20.16 10.95-11.46 3.71-24.26 3.71-13.95 0-24.32-3.2-10.37-3.2-18.05-9.47-7.68-6.28-13.05-15.36-5.38-9.09-9.22-21l13.95-5.76q5.51-2.3 10.31-1.21 4.8 1.09 6.97 5.18 2.31 4.48 5.06 8.83 2.75 4.36 6.59 7.75 3.84 3.39 9.02 5.5 5.19 2.11 12.36 2.11 8.06 0 14.08-2.62 6.01-2.62 10.04-6.85 4.04-4.22 6.02-9.41 1.98-5.18 1.98-10.43 0-6.65-1.4-12.09-1.41-5.44-5.89-9.28-4.48-3.84-12.87-6.02-8.38-2.18-22.46-2.18v-22.52q11.65-.13 19.33-2.18 7.68-2.05 12.22-5.7 4.55-3.64 6.34-8.76 1.79-5.12 1.79-11.27 0-13.05-7.3-19.84-7.29-6.78-19.45-6.78-5.63 0-10.37 1.6-4.74 1.6-8.51 4.48-3.78 2.88-6.34 6.72t-3.84 8.45q-2.17 5.88-5.69 7.8-3.52 1.92-9.92.9Zm196.09 101.12h47.49q5.12 0 8.13 2.88 3.01 2.88 3.01 7.62v18.94h-126.98v-10.5q0-3.2 1.34-6.72 1.35-3.52 4.29-6.33l56.19-56.32q7.04-7.17 12.61-13.7 5.57-6.53 9.28-12.93 3.71-6.4 5.7-12.99 1.98-6.59 1.98-13.89 0-6.65-1.92-11.71-1.92-5.05-5.44-8.51-3.52-3.46-8.45-5.18-4.92-1.73-11.07-1.73-5.63 0-10.43 1.6t-8.51 4.48q-3.71 2.88-6.27 6.72-2.56 3.84-3.84 8.45-2.18 5.88-5.64 7.8-3.45 1.92-9.98.9l-16.64-2.94q1.92-13.32 7.42-23.36 5.51-10.05 13.76-16.77 8.26-6.72 18.95-10.11 10.69-3.4 22.97-3.4 12.8 0 23.43 3.78 10.62 3.78 18.17 10.69 7.56 6.91 11.78 16.64t4.22 21.63q0 10.24-3 18.94-3.01 8.71-8.07 16.64-5.05 7.94-11.84 15.36-6.78 7.43-14.21 15.11l-41.72 42.62q6.01-1.79 11.96-2.75 5.96-.96 11.33-.96Zm267.27-12.93-16.77 16.51-43.39-43.39-43.78 43.65-16.77-16.51 43.78-43.91-41.73-41.72 16.64-16.64 41.73 41.72 41.47-41.47 16.9 16.64-41.6 41.6 43.52 43.52Zm175.23 18.69h33.28v23.68h-102.4v-23.68h37.5v-107.9q0-6.4.39-13.19l-26.63 22.27q-2.3 1.8-4.54 2.24-2.24.45-4.23.07-1.98-.39-3.52-1.35-1.53-.96-2.3-2.11l-9.98-13.69 56.44-48h25.99v161.66Zm84.09-46.08h56.32v-60.54q0-8.58 1.16-18.95l-57.48 79.49Zm83.84 0h23.3v18.3q0 2.56-1.66 4.42-1.67 1.86-4.74 1.86h-16.9v45.18h-27.52v-45.18h-78.08q-3.2 0-5.63-1.99-2.43-1.98-3.07-4.93l-3.33-16 87.68-117.12h29.95v115.46Zm64.64 0h56.32v-60.54q0-8.58 1.16-18.95l-57.48 79.49Zm83.84 0h23.3v18.3q0 2.56-1.66 4.42-1.67 1.86-4.74 1.86h-16.9v45.18h-27.52v-45.18h-78.08q-3.2 0-5.63-1.99-2.43-1.98-3.07-4.93l-3.33-16 87.68-117.12h29.95v115.46Zm107.91 40.32h47.49q5.12 0 8.12 2.88 3.01 2.88 3.01 7.62v18.94h-126.97v-10.5q0-3.2 1.34-6.72 1.34-3.52 4.29-6.33l56.19-56.32q7.04-7.17 12.61-13.7 5.57-6.53 9.28-12.93 3.71-6.4 5.69-12.99 1.99-6.59 1.99-13.89 0-6.65-1.92-11.71-1.92-5.05-5.44-8.51-3.52-3.46-8.45-5.18-4.93-1.73-11.07-1.73-5.63 0-10.43 1.6t-8.52 4.48q-3.71 2.88-6.27 6.72-2.56 3.84-3.84 8.45-2.17 5.88-5.63 7.8t-9.98.9l-16.64-2.94q1.92-13.32 7.42-23.36 5.5-10.05 13.76-16.77 8.26-6.72 18.94-10.11 10.69-3.4 22.98-3.4 12.8 0 23.42 3.78 10.63 3.78 18.18 10.69 7.55 6.91 11.78 16.64 4.22 9.73 4.22 21.63 0 10.24-3.01 18.94-3.01 8.71-8.06 16.64-5.06 7.94-11.84 15.36-6.79 7.43-14.21 15.11l-41.73 42.62q6.02-1.79 11.97-2.75 5.95-.96 11.33-.96Z"/></svg>