<svg width="13" height="8" viewBox="0 0 13 8" fill="none" xmlns="http://www.w3.org/2000/svg">
<path d="M11.3328 0.957487L6.59873 5.69159L1.86418 0.957039C1.80392 0.895378 1.73199 0.846322 1.65257 0.812737C1.57252 0.778885 1.48648 0.761442 1.39957 0.761438L1.3995 0.761438C1.27022 0.76147 1.14389 0.80007 1.03667 0.872302C0.929457 0.944534 0.846229 1.04711 0.797637 1.16691C0.749046 1.28671 0.737301 1.41828 0.763906 1.54479C0.790371 1.67064 0.853589 1.78579 0.94553 1.87566L6.13941 7.06954L6.13945 7.06958C6.26128 7.19136 6.42648 7.25977 6.59873 7.25977C6.77098 7.25977 6.93619 7.19136 7.05801 7.06958L7.05805 7.06954L12.2515 1.87611C12.3448 1.78573 12.4089 1.66942 12.4355 1.5422C12.4622 1.41403 12.4496 1.28076 12.3994 1.15988C12.3491 1.03899 12.2634 0.936119 12.1536 0.864752C12.0439 0.793386 11.9151 0.756854 11.7842 0.759947C11.6136 0.763975 11.4515 0.834957 11.3328 0.957487Z" fill="#000869" stroke="#000869" stroke-width="0.5"/>
</svg>
